<mxfile host="app.diagrams.net" agent="Mozilla/5.0 (Windows NT 10.0; Win64; x64) AppleWebKit/537.36 (KHTML, like Gecko) Chrome/130.0.0.0 Safari/537.36 Edg/130.0.0.0" version="24.8.3">
  <diagram id="ZkGcWtq8yQVxne9JbyTk" name="Page-1">
    <mxGraphModel dx="1674" dy="873" grid="1" gridSize="10" guides="1" tooltips="1" connect="1" arrows="1" fold="1" page="1" pageScale="1" pageWidth="850" pageHeight="1100" math="0" shadow="0">
      <root>
        <mxCell id="0" />
        <mxCell id="1" parent="0" />
        <mxCell id="Lr82Zz0WPIiR3V0eQ3gK-6" style="edgeStyle=orthogonalEdgeStyle;rounded=0;orthogonalLoop=1;jettySize=auto;html=1;exitX=0.5;exitY=1;exitDx=0;exitDy=0;entryX=0.5;entryY=0;entryDx=0;entryDy=0;" parent="1" source="Lr82Zz0WPIiR3V0eQ3gK-1" target="Lr82Zz0WPIiR3V0eQ3gK-2" edge="1">
          <mxGeometry relative="1" as="geometry" />
        </mxCell>
        <mxCell id="Lr82Zz0WPIiR3V0eQ3gK-1" value="START" style="ellipse;whiteSpace=wrap;html=1;" parent="1" vertex="1">
          <mxGeometry x="420" y="120" width="120" height="40" as="geometry" />
        </mxCell>
        <mxCell id="Lr82Zz0WPIiR3V0eQ3gK-7" style="edgeStyle=orthogonalEdgeStyle;rounded=0;orthogonalLoop=1;jettySize=auto;html=1;exitX=0.5;exitY=1;exitDx=0;exitDy=0;entryX=0.5;entryY=0;entryDx=0;entryDy=0;" parent="1" source="Lr82Zz0WPIiR3V0eQ3gK-2" target="Lr82Zz0WPIiR3V0eQ3gK-4" edge="1">
          <mxGeometry relative="1" as="geometry" />
        </mxCell>
        <mxCell id="Lr82Zz0WPIiR3V0eQ3gK-2" value="int(input(&quot;Enter a number: &quot;))" style="shape=parallelogram;perimeter=parallelogramPerimeter;whiteSpace=wrap;html=1;fixedSize=1;" parent="1" vertex="1">
          <mxGeometry x="380" y="200" width="200" height="40" as="geometry" />
        </mxCell>
        <mxCell id="Lr82Zz0WPIiR3V0eQ3gK-8" style="edgeStyle=orthogonalEdgeStyle;rounded=0;orthogonalLoop=1;jettySize=auto;html=1;exitX=0;exitY=0.5;exitDx=0;exitDy=0;" parent="1" source="Lr82Zz0WPIiR3V0eQ3gK-4" target="Lr82Zz0WPIiR3V0eQ3gK-5" edge="1">
          <mxGeometry relative="1" as="geometry" />
        </mxCell>
        <mxCell id="Lr82Zz0WPIiR3V0eQ3gK-10" value="" style="edgeStyle=orthogonalEdgeStyle;rounded=0;orthogonalLoop=1;jettySize=auto;html=1;" parent="1" source="Lr82Zz0WPIiR3V0eQ3gK-4" target="Lr82Zz0WPIiR3V0eQ3gK-9" edge="1">
          <mxGeometry relative="1" as="geometry" />
        </mxCell>
        <mxCell id="Lr82Zz0WPIiR3V0eQ3gK-4" value="if num % 5 == 0:" style="rhombus;whiteSpace=wrap;html=1;" parent="1" vertex="1">
          <mxGeometry x="420" y="280" width="120" height="120" as="geometry" />
        </mxCell>
        <mxCell id="Lr82Zz0WPIiR3V0eQ3gK-20" style="edgeStyle=orthogonalEdgeStyle;rounded=0;orthogonalLoop=1;jettySize=auto;html=1;exitX=0.5;exitY=1;exitDx=0;exitDy=0;entryX=0;entryY=0.5;entryDx=0;entryDy=0;" parent="1" source="Lr82Zz0WPIiR3V0eQ3gK-5" target="Lr82Zz0WPIiR3V0eQ3gK-17" edge="1">
          <mxGeometry relative="1" as="geometry" />
        </mxCell>
        <mxCell id="Lr82Zz0WPIiR3V0eQ3gK-5" value="print(num,&quot;is divisible by 5.&quot;)" style="shape=parallelogram;perimeter=parallelogramPerimeter;whiteSpace=wrap;html=1;fixedSize=1;" parent="1" vertex="1">
          <mxGeometry x="190" y="480" width="185" height="40" as="geometry" />
        </mxCell>
        <mxCell id="Lr82Zz0WPIiR3V0eQ3gK-12" value="" style="edgeStyle=orthogonalEdgeStyle;rounded=0;orthogonalLoop=1;jettySize=auto;html=1;" parent="1" source="Lr82Zz0WPIiR3V0eQ3gK-9" target="Lr82Zz0WPIiR3V0eQ3gK-11" edge="1">
          <mxGeometry relative="1" as="geometry" />
        </mxCell>
        <mxCell id="Lr82Zz0WPIiR3V0eQ3gK-14" value="" style="edgeStyle=orthogonalEdgeStyle;rounded=0;orthogonalLoop=1;jettySize=auto;html=1;" parent="1" source="Lr82Zz0WPIiR3V0eQ3gK-9" target="Lr82Zz0WPIiR3V0eQ3gK-13" edge="1">
          <mxGeometry relative="1" as="geometry" />
        </mxCell>
        <mxCell id="Lr82Zz0WPIiR3V0eQ3gK-9" value="elif num % 11 == 0:" style="rhombus;whiteSpace=wrap;html=1;" parent="1" vertex="1">
          <mxGeometry x="630" y="440" width="120" height="120" as="geometry" />
        </mxCell>
        <mxCell id="Lr82Zz0WPIiR3V0eQ3gK-18" style="edgeStyle=orthogonalEdgeStyle;rounded=0;orthogonalLoop=1;jettySize=auto;html=1;exitX=0.5;exitY=1;exitDx=0;exitDy=0;" parent="1" source="Lr82Zz0WPIiR3V0eQ3gK-11" target="Lr82Zz0WPIiR3V0eQ3gK-17" edge="1">
          <mxGeometry relative="1" as="geometry" />
        </mxCell>
        <mxCell id="Lr82Zz0WPIiR3V0eQ3gK-11" value="print(num,&quot;is divisible by 11.&quot;)" style="shape=parallelogram;perimeter=parallelogramPerimeter;whiteSpace=wrap;html=1;fixedSize=1;" parent="1" vertex="1">
          <mxGeometry x="380" y="640" width="200" height="40" as="geometry" />
        </mxCell>
        <mxCell id="Lr82Zz0WPIiR3V0eQ3gK-16" value="" style="edgeStyle=orthogonalEdgeStyle;rounded=0;orthogonalLoop=1;jettySize=auto;html=1;" parent="1" source="Lr82Zz0WPIiR3V0eQ3gK-13" target="Lr82Zz0WPIiR3V0eQ3gK-15" edge="1">
          <mxGeometry relative="1" as="geometry" />
        </mxCell>
        <mxCell id="Lr82Zz0WPIiR3V0eQ3gK-21" style="edgeStyle=orthogonalEdgeStyle;rounded=0;orthogonalLoop=1;jettySize=auto;html=1;exitX=1;exitY=0.5;exitDx=0;exitDy=0;entryX=1;entryY=0.5;entryDx=0;entryDy=0;" parent="1" source="Lr82Zz0WPIiR3V0eQ3gK-13" target="Lr82Zz0WPIiR3V0eQ3gK-17" edge="1">
          <mxGeometry relative="1" as="geometry">
            <Array as="points">
              <mxPoint x="1120" y="660" />
              <mxPoint x="1120" y="940" />
            </Array>
          </mxGeometry>
        </mxCell>
        <mxCell id="Lr82Zz0WPIiR3V0eQ3gK-13" value="else:" style="rhombus;whiteSpace=wrap;html=1;" parent="1" vertex="1">
          <mxGeometry x="830" y="610" width="100" height="100" as="geometry" />
        </mxCell>
        <mxCell id="Lr82Zz0WPIiR3V0eQ3gK-15" value="print(num,&quot;is not divisible by 5 and 11.&quot;)" style="shape=parallelogram;perimeter=parallelogramPerimeter;whiteSpace=wrap;html=1;fixedSize=1;" parent="1" vertex="1">
          <mxGeometry x="560" y="800" width="240" height="40" as="geometry" />
        </mxCell>
        <mxCell id="Lr82Zz0WPIiR3V0eQ3gK-17" value="STOP" style="ellipse;whiteSpace=wrap;html=1;" parent="1" vertex="1">
          <mxGeometry x="420" y="920" width="120" height="40" as="geometry" />
        </mxCell>
        <mxCell id="Lr82Zz0WPIiR3V0eQ3gK-19" style="edgeStyle=orthogonalEdgeStyle;rounded=0;orthogonalLoop=1;jettySize=auto;html=1;exitX=0.5;exitY=1;exitDx=0;exitDy=0;entryX=0.823;entryY=0.212;entryDx=0;entryDy=0;entryPerimeter=0;" parent="1" source="Lr82Zz0WPIiR3V0eQ3gK-15" target="Lr82Zz0WPIiR3V0eQ3gK-17" edge="1">
          <mxGeometry relative="1" as="geometry" />
        </mxCell>
        <mxCell id="0g8R0SMVF64QkNbcMWQh-1" value="YES" style="text;html=1;align=center;verticalAlign=middle;resizable=0;points=[];autosize=1;strokeColor=none;fillColor=none;" vertex="1" parent="1">
          <mxGeometry x="280" y="310" width="50" height="30" as="geometry" />
        </mxCell>
        <mxCell id="0g8R0SMVF64QkNbcMWQh-2" value="NO" style="text;html=1;align=center;verticalAlign=middle;resizable=0;points=[];autosize=1;strokeColor=none;fillColor=none;" vertex="1" parent="1">
          <mxGeometry x="650" y="310" width="40" height="30" as="geometry" />
        </mxCell>
        <mxCell id="0g8R0SMVF64QkNbcMWQh-3" value="NO" style="text;html=1;align=center;verticalAlign=middle;resizable=0;points=[];autosize=1;strokeColor=none;fillColor=none;" vertex="1" parent="1">
          <mxGeometry x="840" y="470" width="40" height="30" as="geometry" />
        </mxCell>
        <mxCell id="0g8R0SMVF64QkNbcMWQh-4" value="YES" style="text;html=1;align=center;verticalAlign=middle;resizable=0;points=[];autosize=1;strokeColor=none;fillColor=none;" vertex="1" parent="1">
          <mxGeometry x="480" y="470" width="50" height="30" as="geometry" />
        </mxCell>
        <mxCell id="0g8R0SMVF64QkNbcMWQh-5" value="YES" style="text;html=1;align=center;verticalAlign=middle;resizable=0;points=[];autosize=1;strokeColor=none;fillColor=none;" vertex="1" parent="1">
          <mxGeometry x="680" y="630" width="50" height="30" as="geometry" />
        </mxCell>
        <mxCell id="0g8R0SMVF64QkNbcMWQh-6" value="NO" style="text;html=1;align=center;verticalAlign=middle;resizable=0;points=[];autosize=1;strokeColor=none;fillColor=none;" vertex="1" parent="1">
          <mxGeometry x="1080" y="630" width="40" height="30" as="geometry" />
        </mxCell>
      </root>
    </mxGraphModel>
  </diagram>
</mxfile>
